<?xml version="1.0" encoding="UTF-8" standalone="no"?><!DOCTYPE svg PUBLIC "-//W3C//DTD SVG 1.1//EN" "http://www.w3.org/Graphics/SVG/1.1/DTD/svg11.dtd"><svg width="100%" height="100%" viewBox="0 0 11 11" version="1.1" xmlns="http://www.w3.org/2000/svg" xmlns:xlink="http://www.w3.org/1999/xlink" xml:space="preserve" xmlns:serif="http://www.serif.com/" style="fill-rule:evenodd;clip-rule:evenodd;stroke-linejoin:round;stroke-miterlimit:1.41421;"><path d="M9.242,2.111l0,1.149l-2.947,0c-0.507,0 -0.919,0.412 -0.919,0.919l0,2.59l-1.147,0.009l0,-2.534c0,-1.177 0.956,-2.133 2.134,-2.133l2.879,0Z" style="fill:#fff;"/><g><rect x="0" y="2.111" width="3.565" height="1.149" style="fill:#fff;"/><path d="M3.565,3.26l-0.819,-1.149l1.638,0l-0.819,1.149Z" style="fill:#fff;"/></g><g><rect x="6.139" y="7.74" width="3.565" height="1.149" style="fill:#fff;"/><path d="M6.139,7.74l0.819,1.149l-1.639,0l0.82,-1.149Z" style="fill:#fff;"/></g><path d="M11,8.315l-1.904,1.86l0,-3.72l1.904,1.86Z" style="fill:#fff;"/><path d="M11,2.685l-1.904,1.86l0,-3.72l1.904,1.86Z" style="fill:#fff;"/><path d="M0,7.74l3.367,0c0.478,0 0.866,-0.388 0.866,-0.867l0,-2.466l1.143,-1.173l0,3.77c0,1.041 -0.845,1.885 -1.885,1.885l-3.491,0l0,-1.149Z" style="fill:#fff;"/></svg>