<?xml version="1.0" encoding="UTF-8" standalone="no"?><!DOCTYPE svg PUBLIC "-//W3C//DTD SVG 1.1//EN" "http://www.w3.org/Graphics/SVG/1.1/DTD/svg11.dtd"><svg width="100%" height="100%" viewBox="0 0 11 11" version="1.1" xmlns="http://www.w3.org/2000/svg" xmlns:xlink="http://www.w3.org/1999/xlink" xml:space="preserve" xmlns:serif="http://www.serif.com/" style="fill-rule:evenodd;clip-rule:evenodd;stroke-linejoin:round;stroke-miterlimit:1.41421;"><path d="M11,1.311c0,-0.144 -0.117,-0.261 -0.261,-0.261l-10.478,0c-0.144,0 -0.261,0.117 -0.261,0.261l0,0.522c0,0.144 0.117,0.261 0.261,0.261l10.478,0c0.144,0 0.261,-0.117 0.261,-0.261l0,-0.522Z" style="fill:#eee;"/><path d="M11,8.431c0,-0.138 -0.112,-0.251 -0.251,-0.251l-6.48,0c-0.138,0 -0.251,0.113 -0.251,0.251l0,0.501c0,0.138 0.113,0.251 0.251,0.251l6.48,0c0.139,0 0.251,-0.113 0.251,-0.251l0,-0.501Z" style="fill:#eee;"/><path d="M11,4.887c0,-0.144 -0.117,-0.261 -0.261,-0.261l-8.538,0c-0.144,0 -0.261,0.117 -0.261,0.261l0,0.522c0,0.144 0.117,0.261 0.261,0.261l8.538,0c0.144,0 0.261,-0.117 0.261,-0.261l0,-0.522Z" style="fill:#eee;"/></svg>