<?xml version="1.0" encoding="UTF-8" standalone="no"?><!DOCTYPE svg PUBLIC "-//W3C//DTD SVG 1.1//EN" "http://www.w3.org/Graphics/SVG/1.1/DTD/svg11.dtd"><svg width="100%" height="100%" viewBox="0 0 11 11" version="1.1" xmlns="http://www.w3.org/2000/svg" xmlns:xlink="http://www.w3.org/1999/xlink" xml:space="preserve" xmlns:serif="http://www.serif.com/" style="fill-rule:evenodd;clip-rule:evenodd;stroke-linejoin:round;stroke-miterlimit:1.41421;"><path d="M0.104,5.968c0.123,0.216 0.355,0.435 0.686,0.625l3.076,1.769c0.848,0.488 2.031,0.603 2.64,0.257l4.015,-2.282c0.108,-0.061 0.191,-0.134 0.249,-0.214c0.194,0.339 0.121,0.673 -0.249,0.885l-4.015,2.282c-0.609,0.346 -1.792,0.229 -2.64,-0.259l-3.076,-1.767c-0.698,-0.402 -0.953,-0.929 -0.686,-1.296Z" style="fill:#fff;"/><path d="M0.473,2.228c-0.145,-0.079 -0.309,0.017 -0.368,0.214c-0.057,0.196 0.012,0.42 0.157,0.498l10.35,5.642c0.145,0.078 0.309,-0.017 0.368,-0.214c0.057,-0.196 -0.013,-0.42 -0.157,-0.499l-10.35,-5.641Z" style="fill:#fff;"/><path d="M1.995,3.059l6.317,3.442l-1.806,1.027c-0.609,0.346 -1.792,0.23 -2.64,-0.257l-3.076,-1.768c-0.848,-0.489 -1.044,-1.165 -0.437,-1.511l1.642,-0.933Zm0.744,-0.422l1.631,-0.927c0.607,-0.346 1.79,-0.229 2.639,0.259l3.075,1.767c0.849,0.488 1.044,1.166 0.437,1.512l-1.465,0.831l-6.317,-3.442Z" style="fill:#fff;"/></svg>