<?xml version="1.0" encoding="UTF-8" standalone="no"?><!DOCTYPE svg PUBLIC "-//W3C//DTD SVG 1.1//EN" "http://www.w3.org/Graphics/SVG/1.1/DTD/svg11.dtd"><svg width="100%" height="100%" viewBox="0 0 11 11" version="1.1" xmlns="http://www.w3.org/2000/svg" xmlns:xlink="http://www.w3.org/1999/xlink" xml:space="preserve" xmlns:serif="http://www.serif.com/" style="fill-rule:evenodd;clip-rule:evenodd;stroke-linejoin:round;stroke-miterlimit:1.41421;"><path id="Shape" d="M5.497,0c-3.041,0 -5.497,2.461 -5.497,5.5c0,3.039 2.456,5.5 5.497,5.5c2.566,0 4.705,-1.753 5.317,-4.125l-1.431,0c-0.564,1.602 -2.091,2.75 -3.886,2.75c-2.277,0 -4.128,-1.849 -4.128,-4.125c0,-2.276 1.851,-4.125 4.128,-4.125c1.142,0 2.16,0.474 2.903,1.224l-1.788,1.787c-0.098,0.097 -0.098,0.256 -0.001,0.353c0.047,0.047 0.111,0.073 0.177,0.073l3.962,0c0.138,0 0.25,-0.111 0.25,-0.25l0,-3.959c0,-0.138 -0.112,-0.25 -0.25,-0.25c-0.066,0 -0.13,0.027 -0.177,0.073l-1.19,1.19c-0.997,-0.997 -2.366,-1.616 -3.886,-1.616Z" style="fill:#fff;fill-rule:nonzero;"/></svg>